# xmcd
#
# Track frame offsets:
#	182
#	12430
#	30685
#	47975
#	61630
#	74810
#	94475
#	108007
#	129630
#	141662
#	153920
#	173762
#
# Disc length: 2538
#
# Revision: 2
# Processed by: cddbd v1.5.1PL0 Copyright (c) Steve Scherf et al.
# Submitted via: audiograbber 1.83.01
# Normalized: r1:DSETVAR2
#
DISCID=ab09e80c
DTITLE=Various Artist - Motown Anthology
DYEAR=1900
DGENRE=R&B
TTITLE0=The Commodores - Machine Gun
TTITLE1=Temptation - Shakey Ground
TTITLE2=Smokey Robinson - We've Come to Far to End it Now
TTITLE3=Gladys Knight - The Nitty Gritty
TTITLE4=Rare Earth - I Just Want to Celebrate
TTITLE5=Gladys Knight - Neither One of Us
TTITLE6=Michael Jackson - I Wanna Be Where You Are
TTITLE7=Rare Earth - Hey Big Brother
TTITLE8=Temptations - The Way You Do The Things You Do
TTITLE9=Smokey Robinson - I Second That Emotion
TTITLE10=Commodores - Zoom
TTITLE11=Michael Jackson - Farewell My Summer Love
EXTD=
EXTT0=
EXTT1=
EXTT2=
EXTT3=
EXTT4=
EXTT5=
EXTT6=
EXTT7=
EXTT8=
EXTT9=
EXTT10=
EXTT11=
PLAYORDER=
